<svg xmlns="http://www.w3.org/2000/svg" width="11.976" height="15" viewBox="0 0 11.976 15">
  <g id="Group_2370" data-name="Group 2370" transform="translate(-11 -81)">
    <g id="Group_1358" data-name="Group 1358" transform="translate(-37.127 81)">
      <g id="Layer_2" data-name="Layer 2" transform="translate(48.127 0)">
        <g id="Group_1357" data-name="Group 1357" transform="translate(0 0)">
          <path id="Path_374" data-name="Path 374" d="M58.259,4.694l.656-.926a.373.373,0,0,0-.089-.52l-.988-.7a.373.373,0,0,0-.52.089l-.672.948A5.928,5.928,0,0,0,55.06,3.1V2.713a.45.45,0,0,1,.449-.449h.248a.451.451,0,0,0,.449-.449V.449A.451.451,0,0,0,55.756,0H52.473a.45.45,0,0,0-.449.449V1.815a.45.45,0,0,0,.449.449h.248a.45.45,0,0,1,.449.449V3.1a5.932,5.932,0,0,0-1.692.538l-.666-.94a.373.373,0,0,0-.52-.089l-.988.7a.373.373,0,0,0-.089.52l.671.948a5.988,5.988,0,1,0,8.372-.082Zm-4.144,8.869a4.551,4.551,0,1,1,4.551-4.551A4.556,4.556,0,0,1,54.115,13.563Z" transform="translate(-48.127 0)" fill="#b8b4cc"/>
          <path id="Path_375" data-name="Path 375" d="M126.779,171.132a3.757,3.757,0,0,0-3.752-3.722H123v3.722h-3.722c0,.01,0,.02,0,.03A3.756,3.756,0,0,0,123,174.914h.03a3.757,3.757,0,0,0,3.752-3.752C126.78,171.152,126.779,171.142,126.779,171.132Z" transform="translate(-117.04 -162.15)" fill="#b8b4cc"/>
        </g>
      </g>
    </g>
  </g>
</svg>
