<svg xmlns="http://www.w3.org/2000/svg" width="15" height="13.824" viewBox="0 0 15 13.824">
  <g id="Group_1397" data-name="Group 1397" transform="translate(-64 -3069)">
    <g id="Group_201" data-name="Group 201" transform="translate(64 3051.031)">
      <g id="Group_200" data-name="Group 200" transform="translate(0 17.969)">
        <g id="Group_199" data-name="Group 199" transform="translate(0 0)">
          <path id="Path_167" data-name="Path 167" d="M11.014,109.423h0a1.305,1.305,0,0,1-1.3-1.3v-2.165a1.305,1.305,0,0,1,1.3-1.3h3.4l.061,0V102.5a1,1,0,0,0-1.005-1.005H1.005A1,1,0,0,0,0,102.5v9.082a1,1,0,0,0,1.005,1.005H13.467a1,1,0,0,0,1.005-1.005v-2.157l-.061,0Z" transform="translate(0 -98.759)" fill="#b8b4cc"/>
          <path id="Path_168" data-name="Path 168" d="M322.661,219.925h-3.4a.589.589,0,0,0-.589.589v2.165a.589.589,0,0,0,.589.589h3.4a.589.589,0,0,0,.589-.589v-2.165A.589.589,0,0,0,322.661,219.925Zm-2.226,2.522a.851.851,0,1,1,.85-.851A.85.85,0,0,1,320.435,222.447Z" transform="translate(-308.25 -213.318)" fill="#b8b4cc"/>
          <path id="Path_169" data-name="Path 169" d="M158.7,18.861a1.3,1.3,0,0,0-1.64-.825l-5.106,1.687h7.031Z" transform="translate(-146.987 -17.969)" fill="#b8b4cc"/>
        </g>
      </g>
    </g>
  </g>
</svg>
