<svg xmlns="http://www.w3.org/2000/svg" width="16" height="13.129" viewBox="0 0 16 13.129">
  <g id="Group_1379" data-name="Group 1379" transform="translate(-405 -1620)">
    <g id="Group_1374" data-name="Group 1374">
      <g id="Group_129" data-name="Group 129" transform="translate(405 1576.531)" opacity="0.5">
        <g id="Group_128" data-name="Group 128" transform="translate(0 43.469)">
          <path id="Path_123" data-name="Path 123" d="M205.05,249.423l-5.95,5.95a2.111,2.111,0,0,1-.225.195,1.187,1.187,0,0,0,.307.04h5.594A1.23,1.23,0,0,0,206,254.379v-5a6.63,6.63,0,0,1-.816-.1Q205.124,249.348,205.05,249.423Z" transform="translate(-192.308 -242.478)" fill="#fff"/>
          <path id="Path_124" data-name="Path 124" d="M15.258,46.517l-.03-.03a7.144,7.144,0,0,0-2.265-1.44c-.165-.069-.334-.132-.5-.188v-.01a1.345,1.345,0,0,0-1.327-1.327l-3.566-.053a1.751,1.751,0,0,0-1.261.512L.359,49.934a1.23,1.23,0,0,0,0,1.737l3.956,3.956a1.23,1.23,0,0,0,1.737,0l5.954-5.954a1.768,1.768,0,0,0,.39-.594,6.22,6.22,0,0,0,1.691.254c1.268-.007,1.687-.561,1.826-.892S16.146,47.422,15.258,46.517ZM7.891,49.895c-.139.076-.281.159-.423.231s-.182.053-.231-.092a1.777,1.777,0,0,0-.5-.743.671.671,0,0,0-.2-.132.331.331,0,0,0-.475.36,1.559,1.559,0,0,0,.119.419,6.861,6.861,0,0,1,.267.713A1.245,1.245,0,0,1,5.4,52.272a1.337,1.337,0,0,1-.8-.175.191.191,0,0,0-.274.036c-.083.089-.175.172-.261.258a.149.149,0,0,1-.234,0c-.1-.089-.188-.185-.281-.277a.159.159,0,0,1,.007-.248c.063-.063.125-.129.188-.192.139-.142.139-.152.026-.307a2.381,2.381,0,0,1-.353-.641c-.063-.182-.046-.228.119-.32.122-.069.244-.139.37-.2.145-.076.188-.059.238.1a2.284,2.284,0,0,0,.386.717.957.957,0,0,0,.409.314.4.4,0,0,0,.561-.426,1.139,1.139,0,0,0-.086-.327,6.428,6.428,0,0,1-.31-.819,1.131,1.131,0,0,1,.31-1.215,1.192,1.192,0,0,1,1.393-.165c.2.1.2.1.363-.059.053-.053.106-.106.162-.159.122-.116.162-.116.284,0l.109.109c.251.251.251.251,0,.505-.178.178-.178.178-.03.383a2.163,2.163,0,0,1,.274.509A.165.165,0,0,1,7.891,49.895Zm7.063-1.849c-.112.267-1.311.5-3.13-.258a6.992,6.992,0,0,1-1.436-.8c-.013.017-.03.033-.043.05a1.018,1.018,0,1,1,.287-.571,7.059,7.059,0,0,0,1.357.74c.178.073.347.139.512.195l-.02-1.433.086.036A6.162,6.162,0,0,1,14.5,47.227l.02.02C14.948,47.679,14.991,47.957,14.954,48.046Z" transform="translate(0 -43.469)" fill="#fff"/>
        </g>
      </g>
    </g>
  </g>
</svg>
