<svg id="Group_224" data-name="Group 224" xmlns="http://www.w3.org/2000/svg" width="15.969" height="16" viewBox="0 0 15.969 16">
  <circle id="Ellipse_14" data-name="Ellipse 14" cx="0.624" cy="0.624" r="0.624" transform="translate(7.361 4.616)" fill="#9d68d9"/>
  <path id="Path_191" data-name="Path 191" d="M236.624,217a.624.624,0,0,0-.624.624v3.368a.624.624,0,0,0,1.248,0v-3.368A.624.624,0,0,0,236.624,217Z" transform="translate(-228.639 -210.232)" fill="#9d68d9"/>
  <path id="Path_192" data-name="Path 192" d="M15.969,8.016s0-.009,0-.013,0-.012,0-.018A7.984,7.984,0,0,0,2.339,2.339,7.932,7.932,0,0,0,0,7.984C0,7.99,0,7.995,0,8s0,.01,0,.016a7.952,7.952,0,0,0,1.353,4.432.626.626,0,0,0,.063.078,8.093,8.093,0,0,0,2.3,2.207.623.623,0,0,0,.14.116A7.985,7.985,0,0,0,15.967,8.135c0-.007,0-.013,0-.02C15.968,8.082,15.969,8.049,15.969,8.016Zm-4.351,5.671a.621.621,0,0,0-.148.065A6.718,6.718,0,1,1,14.721,8c0,.033,0,.065,0,.1,0,0,0,.007,0,.01a6.713,6.713,0,0,1-1.141,3.613.622.622,0,0,0-.071.144A6.792,6.792,0,0,1,11.618,13.687Z" fill="#9d68d9"/>
</svg>
