<svg xmlns="http://www.w3.org/2000/svg" width="13.696" height="17" viewBox="0 0 13.696 17">
  <g id="Group_1339" data-name="Group 1339" transform="translate(-1808.5 -40.5)">
    <g id="Group_35" data-name="Group 35" transform="translate(1758.51 41)">
      <g id="Group_34" data-name="Group 34" transform="translate(50.49)">
        <path id="Path_25" data-name="Path 25" d="M63.185,12.9V8.033a3.107,3.107,0,0,0-2.418-3.02V3.949A3.95,3.95,0,0,0,56.818,0h0a3.95,3.95,0,0,0-3.949,3.949v1.07A3.114,3.114,0,0,0,50.49,8.033V12.9a3.111,3.111,0,0,0,3.1,3.1h6.534A3.036,3.036,0,0,0,63.185,12.9ZM54.233,3.917A2.627,2.627,0,0,1,56.854,1.3h0a2.627,2.627,0,0,1,2.621,2.621V4.9H54.233ZM61.857,12.9a1.757,1.757,0,0,1-1.77,1.77h-6.5a1.757,1.757,0,0,1-1.77-1.77V8.033a1.757,1.757,0,0,1,1.77-1.77h6.5a1.757,1.757,0,0,1,1.77,1.77Z" transform="translate(-50.49)" fill="#9d68d9" stroke="rgba(0,0,0,0)" stroke-width="1"/>
        <path id="Path_26" data-name="Path 26" d="M219.08,298.6h-.409a.68.68,0,0,0-.478,1.165v1.76a.681.681,0,0,0,1.361,0v-1.76a.68.68,0,0,0-.474-1.165Z" transform="translate(-212.509 -288.83)" fill="#9d68d9" stroke="rgba(0,0,0,0)" stroke-width="1"/>
      </g>
    </g>
  </g>
</svg>
