<svg xmlns="http://www.w3.org/2000/svg" xmlns:xlink="http://www.w3.org/1999/xlink" width="115.137" height="50" viewBox="0 0 115.137 50">
  <defs>
    <clipPath id="clip-path">
      <path id="Path_1" data-name="Path 1" d="M167.693,322.369c-.141,0-.282,0-.422.006.067,0,.133-.006.2-.006h.222Zm.009,6.9h-.009a8.338,8.338,0,0,0-7.754,11.4,8.573,8.573,0,0,0,.519,1.086l3.006-3.16a1.794,1.794,0,0,1,2.6,2.473l-4.471,4.7a1.8,1.8,0,0,1-2.7-.119,11.927,11.927,0,0,1,8.8-19.974c.036,0,.072,0,.108,0a1.681,1.681,0,0,0,.524-.122,1.666,1.666,0,0,0,.008-3.065c-.034-.014-.068-.026-.1-.038a3.455,3.455,0,0,1-.528,6.819Z" transform="translate(-155.76 -322.369)" fill="none"/>
    </clipPath>
    <linearGradient id="linear-gradient" x1="0.5" y1="0.184" x2="0.5" y2="0.992" gradientUnits="objectBoundingBox">
      <stop offset="0" stop-color="#6939a3"/>
      <stop offset="0.185" stop-color="#7a48b5"/>
      <stop offset="0.455" stop-color="#8d5ac9"/>
      <stop offset="0.727" stop-color="#9964d5"/>
      <stop offset="1" stop-color="#9d68d9"/>
    </linearGradient>
    <clipPath id="clip-path-2">
      <path id="Path_3" data-name="Path 3" d="M178.041,360.892l.269-.005c-.064,0-.129.006-.194.006Zm5.947-20.94a1.789,1.789,0,0,1,2.613-2.445,11.927,11.927,0,0,1-8.707,20.08c-.036,0-.072,0-.108,0a1.628,1.628,0,0,0-1.062.487,1.667,1.667,0,0,0,.529,2.7c.034.013.068.026.1.038a3.455,3.455,0,0,1,.528-6.818h.01a8.35,8.35,0,0,0,6.094-14.038Z" transform="translate(-174.661 -336.941)" fill="none"/>
    </clipPath>
    <linearGradient id="linear-gradient-2" x1="0.5" y1="1" x2="0.5" y2="0.008" gradientUnits="objectBoundingBox">
      <stop offset="0" stop-color="#007ba7"/>
      <stop offset="0.043" stop-color="#0080ab"/>
      <stop offset="0.282" stop-color="#009cc0"/>
      <stop offset="0.522" stop-color="#00b0cf"/>
      <stop offset="0.761" stop-color="#00bcd8"/>
      <stop offset="1" stop-color="#00c1db"/>
    </linearGradient>
    <clipPath id="clip-path-3">
      <path id="Path_4" data-name="Path 4" d="M146.482,342.886l.029.1Zm-6.142,2.009q.175.255.358.5a1.43,1.43,0,0,0,2.405-1.045c0-.572-.542-1.059-.76-1.471a18.832,18.832,0,0,1,15.8-29.088h0a5.246,5.246,0,0,1,.195,10.489,1.822,1.822,0,0,1-.186.01,3.455,3.455,0,0,0,.528-6.819,1.7,1.7,0,0,0-.536-.084h-.223c-.068,0-.136,0-.2.006a15.244,15.244,0,0,0-12.356,23.539,5.018,5.018,0,0,1,.722,1h0a3.232,3.232,0,0,1-5.74,2.96Z" transform="translate(-139.304 -313.795)" fill="none"/>
    </clipPath>
    <linearGradient id="linear-gradient-3" x1="0.5" y1="0.185" x2="0.5" y2="1" gradientUnits="objectBoundingBox">
      <stop offset="0" stop-color="#9d68d9"/>
      <stop offset="0.391" stop-color="#9a65d6"/>
      <stop offset="0.61" stop-color="#925ece"/>
      <stop offset="0.786" stop-color="#8552c0"/>
      <stop offset="0.939" stop-color="#7241ad"/>
      <stop offset="1" stop-color="#6939a3"/>
    </linearGradient>
    <clipPath id="clip-path-4">
      <path id="Path_5" data-name="Path 5" d="M129.148,338.915l-.041-.054a25.188,25.188,0,0,1,26.115-39.546l.007,0v0a25.186,25.186,0,0,1,5.574,2.067,1.791,1.791,0,0,1-1.63,3.189,21.627,21.627,0,0,0-4.787-1.772v0a21.622,21.622,0,0,0-22.864,33.28,3.232,3.232,0,0,0,5.74-2.96,5.026,5.026,0,0,1-7.96,5.974,1.854,1.854,0,0,1-.155-.177" transform="translate(-124.116 -298.607)" fill="none"/>
    </clipPath>
    <linearGradient id="linear-gradient-4" x1="0.5" y1="0.185" x2="0.5" y2="1" gradientUnits="objectBoundingBox">
      <stop offset="0" stop-color="#905dcc"/>
      <stop offset="1" stop-color="#9d68d9"/>
    </linearGradient>
    <clipPath id="clip-path-5">
      <path id="Path_6" data-name="Path 6" d="M185.3,319.431l.041.053a25.188,25.188,0,0,1-26.115,39.546l-.007,0v0a25.178,25.178,0,0,1-5.574-2.067,1.791,1.791,0,1,1,1.63-3.189,21.629,21.629,0,0,0,4.787,1.772h0a21.623,21.623,0,0,0,22.864-33.28,3.232,3.232,0,0,0-5.74,2.96,5.027,5.027,0,0,1,7.96-5.974,1.862,1.862,0,0,1,.155.177" transform="translate(-152.671 -317.782)" fill="none"/>
    </clipPath>
    <linearGradient id="linear-gradient-5" x1="0.5" x2="0.5" y2="1" gradientUnits="objectBoundingBox">
      <stop offset="0" stop-color="#00c1db"/>
      <stop offset="1" stop-color="#00b2d0"/>
    </linearGradient>
    <clipPath id="clip-path-6">
      <path id="Path_7" data-name="Path 7" d="M186.76,328.232c-.01-.033-.02-.066-.029-.1Zm6.141-2.009q-.175-.255-.358-.505a1.43,1.43,0,0,0-2.405,1.045c0,.572.542,1.06.76,1.472a18.832,18.832,0,0,1-15.8,29.088h0a5.246,5.246,0,0,1-.194-10.489,1.821,1.821,0,0,1,.186-.011,3.456,3.456,0,0,0-.528,6.819,1.7,1.7,0,0,0,.536.083h.224c.068,0,.136,0,.2-.006a15.242,15.242,0,0,0,12.356-23.538,5.018,5.018,0,0,1-.722-1h0a3.232,3.232,0,0,1,5.74-2.96Z" transform="translate(-169.851 -324.596)" fill="none"/>
    </clipPath>
    <linearGradient id="linear-gradient-6" y1="0" y2="1" xlink:href="#linear-gradient-2"/>
    <clipPath id="clip-path-7">
      <path id="Path_8" data-name="Path 8" d="M316.474,369.571a3.368,3.368,0,0,0,.887-.113,3.032,3.032,0,0,0,.783-.336,3.25,3.25,0,0,0,.669-.533,3.475,3.475,0,0,0,.844-1.548,4.272,4.272,0,0,0,0-1.922,3.483,3.483,0,0,0-.329-.849,3.385,3.385,0,0,0-.515-.713,3.186,3.186,0,0,0-.669-.536,3.047,3.047,0,0,0-.783-.336,3.541,3.541,0,0,0-1.774,0,3.053,3.053,0,0,0-.783.336,3.134,3.134,0,0,0-.663.534,3.3,3.3,0,0,0-.507.71,3.792,3.792,0,0,0-.43,1.818,3.727,3.727,0,0,0,.43,1.8,3.308,3.308,0,0,0,.5.7,3.188,3.188,0,0,0,.666.533,3.035,3.035,0,0,0,.783.336,3.365,3.365,0,0,0,.886.113m0-10.153a6.628,6.628,0,0,1,3.363.878,6.326,6.326,0,0,1,2.393,2.4,6.524,6.524,0,0,1,.65,1.612,7.166,7.166,0,0,1,.215,1.77,7.625,7.625,0,0,1-.2,1.759v0a6.778,6.778,0,0,1-.6,1.6,6.384,6.384,0,0,1-.958,1.362,6,6,0,0,1-1.264,1.041,5.8,5.8,0,0,1-1.5.654,6.312,6.312,0,0,1-3.007.073,5.837,5.837,0,0,1-1.263-.437,6.023,6.023,0,0,1-1.006-.608v4.506a1.665,1.665,0,0,1-.48,1.228,1.583,1.583,0,0,1-.566.364,1.85,1.85,0,0,1-.662.116,1.8,1.8,0,0,1-.651-.116,1.642,1.642,0,0,1-.557-.357,1.581,1.581,0,0,1-.379-.566,1.821,1.821,0,0,1-.121-.669v-9.957a6.675,6.675,0,0,1,.878-3.385,6.6,6.6,0,0,1,1.032-1.362,6.482,6.482,0,0,1,1.344-1.039,6.3,6.3,0,0,1,1.595-.658A6.887,6.887,0,0,1,316.474,359.418Zm-15.008,3.154a3.267,3.267,0,0,0-1.7.44,3.1,3.1,0,0,0-1.166,1.231,3.525,3.525,0,0,0-.321.857,4.449,4.449,0,0,0,0,1.961,3.43,3.43,0,0,0,.321.847,3.229,3.229,0,0,0,.5.7,3.121,3.121,0,0,0,1.449.853,3.571,3.571,0,0,0,.908.11,3.267,3.267,0,0,0,1.7-.44,3.028,3.028,0,0,0,.659-.523,3.144,3.144,0,0,0,.494-.695,3.515,3.515,0,0,0,.315-.849,4.321,4.321,0,0,0,.107-.982,3.92,3.92,0,0,0-.422-1.844,3.162,3.162,0,0,0-.5-.7,3,3,0,0,0-.656-.524,3.057,3.057,0,0,0-.788-.33A3.567,3.567,0,0,0,301.466,362.572Zm0-3.154a6.729,6.729,0,0,1,3.382.854,6.172,6.172,0,0,1,2.365,2.376,6.439,6.439,0,0,1,.64,1.623,7.807,7.807,0,0,1,0,3.605,6.483,6.483,0,0,1-.631,1.617,6.084,6.084,0,0,1-2.354,2.378,6.36,6.36,0,0,1-1.611.642,7.4,7.4,0,0,1-1.793.212,6.827,6.827,0,0,1-3.412-.852,6.067,6.067,0,0,1-2.368-2.381,6.486,6.486,0,0,1-.631-1.617,7.518,7.518,0,0,1-.21-1.793,7.641,7.641,0,0,1,.21-1.81,6.458,6.458,0,0,1,.631-1.623,6.067,6.067,0,0,1,2.368-2.381A6.828,6.828,0,0,1,301.466,359.418ZM287.4,359.4a6.668,6.668,0,0,1,1.57.182,5.832,5.832,0,0,1,1.421.547,5.2,5.2,0,0,1,2.117,2.15,5.982,5.982,0,0,1,.563,1.537,8.1,8.1,0,0,1,.185,1.768v5.371a1.765,1.765,0,0,1-.123.658,1.643,1.643,0,0,1-.367.557l0,0a1.648,1.648,0,0,1-.557.367,1.815,1.815,0,0,1-1.315,0,1.668,1.668,0,0,1-1.05-1.585v-5.371a4.059,4.059,0,0,0-.2-1.356,2.247,2.247,0,0,0-.562-.89,2.516,2.516,0,0,0-.9-.552,3.594,3.594,0,0,0-1.217-.19,3.437,3.437,0,0,0-.748.077,2.913,2.913,0,0,0-.659.232,2.66,2.66,0,0,0-.551.355,2.2,2.2,0,0,0-.4.447,1.887,1.887,0,0,0-.243.511,2.014,2.014,0,0,0-.081.578v6.158a1.674,1.674,0,0,1-.473,1.208,1.581,1.581,0,0,1-.566.379,1.821,1.821,0,0,1-.669.121,1.767,1.767,0,0,1-.658-.123,1.668,1.668,0,0,1-1.05-1.585V356.1a1.82,1.82,0,0,1,.121-.669,1.581,1.581,0,0,1,.379-.566,1.651,1.651,0,0,1,.557-.357v0a1.8,1.8,0,0,1,.65-.118,1.662,1.662,0,0,1,1.228.48,1.58,1.58,0,0,1,.364.566,1.854,1.854,0,0,1,.116.662v4.137a5.678,5.678,0,0,1,.847-.419,5.9,5.9,0,0,1,1.1-.319A6.326,6.326,0,0,1,287.4,359.4Zm-13.283.022a8.151,8.151,0,0,1,1.45.126,6.561,6.561,0,0,1,1.317.376,5.564,5.564,0,0,1,1.128.613,4.493,4.493,0,0,1,.888.83,1.979,1.979,0,0,1,.3.5,1.506,1.506,0,0,1,.115.572,1.316,1.316,0,0,1-.167.641,1.716,1.716,0,0,1-.422.494l-.028.023a1.451,1.451,0,0,1-.459.221,1.823,1.823,0,0,1-.5.067,2.066,2.066,0,0,1-1.423-.571l0,0a3.061,3.061,0,0,0-.469-.359,2.4,2.4,0,0,0-.477-.225,3.1,3.1,0,0,0-.568-.13,5.307,5.307,0,0,0-.727-.045,4,4,0,0,0-.8.071,2.186,2.186,0,0,0-.576.2.732.732,0,0,0-.269.214.37.37,0,0,0-.057.211.815.815,0,0,0,.029.232.464.464,0,0,0,.071.147.647.647,0,0,0,.166.142,2.466,2.466,0,0,0,.413.209,6.212,6.212,0,0,0,.681.225q.419.117.983.234a12.825,12.825,0,0,1,2.131.6,5.291,5.291,0,0,1,1.507.861,3.377,3.377,0,0,1,.9,1.184,3.538,3.538,0,0,1,.3,1.472,3.918,3.918,0,0,1-.162,1.128,3.8,3.8,0,0,1-.484,1.025h0a3.835,3.835,0,0,1-.795.864,4.817,4.817,0,0,1-1.063.638,5.782,5.782,0,0,1-1.3.391,8.182,8.182,0,0,1-1.485.129,9.513,9.513,0,0,1-1.536-.124,8.665,8.665,0,0,1-1.454-.37,7.307,7.307,0,0,1-1.273-.578,4.94,4.94,0,0,1-1.005-.762,1.568,1.568,0,0,1-.341-.5,1.529,1.529,0,0,1-.117-.6,1.611,1.611,0,0,1,.177-.745,1.682,1.682,0,0,1,.5-.581l0,0a2.386,2.386,0,0,1,.529-.3,1.517,1.517,0,0,1,1.265.035,2.057,2.057,0,0,1,.571.411l.018.023a1.961,1.961,0,0,0,.4.326,4.126,4.126,0,0,0,1.374.539,4.241,4.241,0,0,0,.8.073,3.2,3.2,0,0,0,1.626-.329.925.925,0,0,0,.318-.288.642.642,0,0,0,0-.63,1.037,1.037,0,0,0-.326-.317,3.259,3.259,0,0,0-.768-.343,10.509,10.509,0,0,0-1.307-.323h0a7.6,7.6,0,0,1-3.409-1.392,3.433,3.433,0,0,1-.489-4.839,4.132,4.132,0,0,1,.852-.756,4.837,4.837,0,0,1,1.056-.529,6.781,6.781,0,0,1,1.163-.306A7.294,7.294,0,0,1,274.113,359.418Z" transform="translate(-268.54 -354.396)" fill="none"/>
    </clipPath>
    <linearGradient id="linear-gradient-7" x1="0.558" y1="1.044" x2="0.442" y2="-0.044" gradientUnits="objectBoundingBox">
      <stop offset="0" stop-color="#028fc1"/>
      <stop offset="0.326" stop-color="#00b0cf"/>
      <stop offset="0.64" stop-color="#00bcd8"/>
      <stop offset="1" stop-color="#00c1db"/>
    </linearGradient>
    <clipPath id="clip-path-8">
      <path id="Path_9" data-name="Path 9" d="M305.335,314.522a3.267,3.267,0,0,0-1.7.44,3.1,3.1,0,0,0-1.166,1.231,3.56,3.56,0,0,0-.321.857,4.464,4.464,0,0,0,0,1.961,3.466,3.466,0,0,0,.321.847,3.264,3.264,0,0,0,.505.7,3.131,3.131,0,0,0,1.449.853,3.568,3.568,0,0,0,.908.11,3.263,3.263,0,0,0,1.7-.44,3.013,3.013,0,0,0,.658-.523,3.144,3.144,0,0,0,.495-.694,3.522,3.522,0,0,0,.315-.849,4.325,4.325,0,0,0,.107-.982,3.918,3.918,0,0,0-.422-1.844,3.181,3.181,0,0,0-.5-.7,3,3,0,0,0-.656-.523,3.063,3.063,0,0,0-.788-.33,3.569,3.569,0,0,0-.908-.11m0-3.154a6.729,6.729,0,0,1,3.382.854,6.212,6.212,0,0,1,1.345,1.023,6.288,6.288,0,0,1,1.02,1.353,6.409,6.409,0,0,1,.639,1.623,7.8,7.8,0,0,1,0,3.605,6.489,6.489,0,0,1-.631,1.617,6.087,6.087,0,0,1-2.354,2.378,6.346,6.346,0,0,1-1.611.642,7.38,7.38,0,0,1-1.793.213,6.833,6.833,0,0,1-3.413-.852,6.078,6.078,0,0,1-2.367-2.381,6.5,6.5,0,0,1-.631-1.617,7.52,7.52,0,0,1-.21-1.793,7.641,7.641,0,0,1,.21-1.81,6.455,6.455,0,0,1,.631-1.623,6.078,6.078,0,0,1,2.367-2.381A6.834,6.834,0,0,1,305.335,311.368Zm-7.839-1.824a2.3,2.3,0,0,0-.878.156,1.813,1.813,0,0,0-.651.459,2.069,2.069,0,0,0-.434.73,3.075,3.075,0,0,0-.151,1h1.633a1.829,1.829,0,0,1,.612.1,1.525,1.525,0,0,1,.532.32,1.438,1.438,0,0,1,.362.519,1.621,1.621,0,0,1,.115.616,1.482,1.482,0,0,1-.122.595,1.459,1.459,0,0,1-.354.5,1.525,1.525,0,0,1-.532.32,1.829,1.829,0,0,1-.612.1h-1.633v7.921a1.663,1.663,0,0,1-.48,1.228h0a1.564,1.564,0,0,1-.585.368,2.021,2.021,0,0,1-.685.113,1.619,1.619,0,0,1-1.164-.473,1.587,1.587,0,0,1-.379-.566,1.818,1.818,0,0,1-.121-.669v-7.921h-.344a1.83,1.83,0,0,1-.612-.1,1.528,1.528,0,0,1-.532-.32,1.459,1.459,0,0,1-.354-.5,1.482,1.482,0,0,1-.122-.595,1.621,1.621,0,0,1,.115-.616,1.433,1.433,0,0,1,.362-.519,1.525,1.525,0,0,1,.532-.32,1.83,1.83,0,0,1,.612-.1h.347a6.99,6.99,0,0,1,.169-1.364,5.667,5.667,0,0,1,.523-1.41,5.177,5.177,0,0,1,.843-1.169,5.041,5.041,0,0,1,1.131-.88,5.315,5.315,0,0,1,1.354-.543,6.149,6.149,0,0,1,1.506-.18,1.886,1.886,0,0,1,.637.106,1.657,1.657,0,0,1,.555.331,1.527,1.527,0,0,1,.386.524,1.623,1.623,0,0,1,0,1.275,1.524,1.524,0,0,1-.386.524,1.663,1.663,0,0,1-.555.331A1.885,1.885,0,0,1,297.5,309.544Zm-14.105,1.8a6.67,6.67,0,0,1,1.57.182,5.814,5.814,0,0,1,1.421.547,5.2,5.2,0,0,1,2.117,2.15,5.992,5.992,0,0,1,.563,1.537,8.107,8.107,0,0,1,.185,1.768V322.9a1.762,1.762,0,0,1-.123.658,1.644,1.644,0,0,1-.367.558l0,0a1.631,1.631,0,0,1-.557.367,1.816,1.816,0,0,1-1.315,0,1.636,1.636,0,0,1-.56-.367,1.653,1.653,0,0,1-.491-1.217V317.53a4.058,4.058,0,0,0-.2-1.355,2.244,2.244,0,0,0-.562-.89,2.507,2.507,0,0,0-.9-.552,3.591,3.591,0,0,0-1.216-.19,3.437,3.437,0,0,0-.748.077,2.9,2.9,0,0,0-.66.232,2.621,2.621,0,0,0-.55.355,2.186,2.186,0,0,0-.4.447,1.869,1.869,0,0,0-.243.511,2,2,0,0,0-.081.578V322.9a1.673,1.673,0,0,1-.473,1.208,1.586,1.586,0,0,1-.566.379,1.821,1.821,0,0,1-.669.121,1.767,1.767,0,0,1-.658-.123,1.668,1.668,0,0,1-1.05-1.585v-9.738a1.831,1.831,0,0,1,.121-.669,1.583,1.583,0,0,1,.379-.566,1.635,1.635,0,0,1,.558-.357v0a1.8,1.8,0,0,1,.65-.118,1.662,1.662,0,0,1,1.228.48,1.593,1.593,0,0,1,.284.38l.043-.029a5.638,5.638,0,0,1,1-.515,5.9,5.9,0,0,1,1.1-.319A6.372,6.372,0,0,1,283.391,311.346Zm-11.2-4.716a1.989,1.989,0,0,1,.776.153h0a2.129,2.129,0,0,1,1.1,1.1v0a2.043,2.043,0,0,1,0,1.552v0a2.037,2.037,0,0,1-.447.655v0a2.047,2.047,0,0,1-.657.447,2.056,2.056,0,0,1-1.557,0,2.069,2.069,0,0,1-.655-.447h0a2.05,2.05,0,0,1-.446-.658,2.05,2.05,0,0,1,0-1.557,2.067,2.067,0,0,1,.448-.656h0a2.035,2.035,0,0,1,.658-.446A1.974,1.974,0,0,1,272.19,306.63Zm-1.708,6.534a1.819,1.819,0,0,1,.121-.669,1.582,1.582,0,0,1,.379-.566,1.793,1.793,0,0,1,2.435.008h0a1.664,1.664,0,0,1,.48,1.228v9.716a1.672,1.672,0,0,1-.473,1.208,1.586,1.586,0,0,1-.566.379,1.82,1.82,0,0,1-.669.121,1.765,1.765,0,0,1-.658-.123,1.65,1.65,0,0,1-.927-.927,1.764,1.764,0,0,1-.123-.658Z" transform="translate(-270.154 -306.346)" fill="none"/>
    </clipPath>
    <linearGradient id="linear-gradient-8" x1="0.559" y1="1.029" x2="0.461" y2="0.145" gradientUnits="objectBoundingBox">
      <stop offset="0" stop-color="#7839c2"/>
      <stop offset="1" stop-color="#9d68d9"/>
    </linearGradient>
  </defs>
  <g id="Group_17" data-name="Group 17" transform="translate(-124.116 -298.607)">
    <g id="Group_2" data-name="Group 2" transform="translate(137.39 308.575)">
      <g id="Group_1" data-name="Group 1" transform="translate(0 0)" clip-path="url(#clip-path)">
        <rect id="Rectangle_1" data-name="Rectangle 1" width="15.166" height="24.145" transform="translate(0 0)" fill="url(#linear-gradient)"/>
      </g>
    </g>
    <path id="Path_2" data-name="Path 2" d="M186.163,348.277a1.8,1.8,0,1,1-1.8,1.8,1.8,1.8,0,0,1,1.8-1.8" transform="translate(-34.976 -28.835)" fill="#00bfda" fill-rule="evenodd"/>
    <g id="Group_4" data-name="Group 4" transform="translate(145.318 314.687)">
      <g id="Group_3" data-name="Group 3" transform="translate(0)" clip-path="url(#clip-path-2)">
        <rect id="Rectangle_2" data-name="Rectangle 2" width="15.166" height="24.144" transform="translate(0 -0.192)" fill="url(#linear-gradient-2)"/>
      </g>
    </g>
    <g id="Group_6" data-name="Group 6" transform="translate(130.487 304.978)">
      <g id="Group_5" data-name="Group 5" transform="translate(0 0)" clip-path="url(#clip-path-3)">
        <rect id="Rectangle_3" data-name="Rectangle 3" width="24.086" height="32.727" transform="translate(0 0)" fill="url(#linear-gradient-3)"/>
      </g>
    </g>
    <g id="Group_8" data-name="Group 8" transform="translate(124.116 298.607)">
      <g id="Group_7" data-name="Group 7" clip-path="url(#clip-path-4)">
        <rect id="Rectangle_4" data-name="Rectangle 4" width="37.917" height="41.957" transform="translate(0)" fill="url(#linear-gradient-4)"/>
      </g>
    </g>
    <g id="Group_10" data-name="Group 10" transform="translate(136.094 306.65)">
      <g id="Group_9" data-name="Group 9" transform="translate(0 0)" clip-path="url(#clip-path-5)">
        <rect id="Rectangle_5" data-name="Rectangle 5" width="37.917" height="41.957" transform="translate(-0.253 0)" fill="url(#linear-gradient-5)"/>
      </g>
    </g>
    <g id="Group_12" data-name="Group 12" transform="translate(143.301 309.509)">
      <g id="Group_11" data-name="Group 11" transform="translate(0 0)" clip-path="url(#clip-path-6)">
        <rect id="Rectangle_6" data-name="Rectangle 6" width="24.086" height="32.727" transform="translate(0 0)" fill="url(#linear-gradient-6)"/>
      </g>
    </g>
    <g id="Group_14" data-name="Group 14" transform="translate(184.699 322.009)">
      <g id="Group_13" data-name="Group 13" clip-path="url(#clip-path-7)">
        <rect id="Rectangle_7" data-name="Rectangle 7" width="54.555" height="23.351" transform="translate(0 0)" fill="url(#linear-gradient-7)"/>
      </g>
    </g>
    <g id="Group_16" data-name="Group 16" transform="translate(185.376 301.853)">
      <g id="Group_15" data-name="Group 15" clip-path="url(#clip-path-8)">
        <rect id="Rectangle_8" data-name="Rectangle 8" width="41.78" height="18.329" transform="translate(0 0)" fill="url(#linear-gradient-8)"/>
      </g>
    </g>
  </g>
</svg>
