<svg xmlns="http://www.w3.org/2000/svg" width="51.874" height="60.5" viewBox="0 0 51.874 60.5">
  <g id="Group_1332" data-name="Group 1332" transform="translate(-554.5 -468)">
    <g id="Group_94" data-name="Group 94" transform="translate(516.063 468)">
      <g id="Group_69" data-name="Group 69" transform="translate(38.937)">
        <g id="Group_68" data-name="Group 68">
          <path id="Path_45" data-name="Path 45" d="M76.906,0H42.453a3.52,3.52,0,0,0-3.516,3.516V15.469a1.172,1.172,0,0,0,2.344,0V3.516a1.173,1.173,0,0,1,1.172-1.172H76.906a1.173,1.173,0,0,1,1.172,1.172V47.109a1.173,1.173,0,0,1-1.172,1.172H42.453a1.173,1.173,0,0,1-1.172-1.172V25.352a1.172,1.172,0,0,0-2.344,0V47.109a3.52,3.52,0,0,0,3.516,3.516H76.906a3.52,3.52,0,0,0,3.516-3.516V3.516A3.52,3.52,0,0,0,76.906,0Z" transform="translate(-38.937 0)" fill="#aa6def"/>
        </g>
      </g>
      <g id="Group_71" data-name="Group 71" transform="translate(38.937 19.545)">
        <g id="Group_70" data-name="Group 70">
          <path id="Path_46" data-name="Path 46" d="M40.937,167.122a1.172,1.172,0,1,0,.343.829A1.179,1.179,0,0,0,40.937,167.122Z" transform="translate(-38.937 -166.78)" fill="#aa6def" stroke="rgba(0,0,0,0)" stroke-width="1"/>
        </g>
      </g>
      <g id="Group_73" data-name="Group 73" transform="translate(43.631 52.976)">
        <g id="Group_72" data-name="Group 72">
          <path id="Path_47" data-name="Path 47" d="M81,452.4a1.171,1.171,0,1,0,.343.829A1.178,1.178,0,0,0,81,452.4Z" transform="translate(-78.996 -452.06)" fill="#aa6def" stroke="rgba(0,0,0,0)" stroke-width="1"/>
        </g>
      </g>
      <g id="Group_75" data-name="Group 75" transform="translate(48.319 4.695)">
        <g id="Group_74" data-name="Group 74">
          <path id="Path_48" data-name="Path 48" d="M154.625,40.063a1.172,1.172,0,0,0-1.172,1.172V87.172a1.173,1.173,0,0,1-1.172,1.172H120.172a1.172,1.172,0,0,0,0,2.344h32.109a3.52,3.52,0,0,0,3.516-3.516V41.235A1.172,1.172,0,0,0,154.625,40.063Z" transform="translate(-119 -40.063)" fill="#aa6def" stroke="rgba(0,0,0,0)" stroke-width="1"/>
        </g>
      </g>
      <g id="Group_77" data-name="Group 77" transform="translate(48.327 9.375)">
        <g id="Group_76" data-name="Group 76">
          <path id="Path_49" data-name="Path 49" d="M159.376,80a1.172,1.172,0,0,0-1.172,1.172v45.937a1.173,1.173,0,0,1-1.172,1.172h-36.8a1.172,1.172,0,0,0,0,2.344h36.8a3.52,3.52,0,0,0,3.516-3.516V81.172A1.172,1.172,0,0,0,159.376,80Z" transform="translate(-119.063 -80)" fill="#aa6def" stroke="rgba(0,0,0,0)" stroke-width="1"/>
        </g>
      </g>
      <g id="Group_79" data-name="Group 79" transform="translate(45.5 8.672)">
        <g id="Group_78" data-name="Group 78">
          <path id="Path_50" data-name="Path 50" d="M107.359,74H96.109a1.172,1.172,0,0,0-1.172,1.172v11.25a1.172,1.172,0,0,0,1.172,1.172h11.25a1.172,1.172,0,0,0,1.172-1.172V75.172A1.172,1.172,0,0,0,107.359,74Zm-1.172,11.25H97.281V76.344h8.906Z" transform="translate(-94.937 -74)" fill="#00cbe6"/>
        </g>
      </g>
      <g id="Group_81" data-name="Group 81" transform="translate(45.929 27.243)">
        <g id="Group_80" data-name="Group 80">
          <path id="Path_51" data-name="Path 51" d="M106.825,232.817a1.172,1.172,0,0,0-1.657,0l-3.115,3.115-1.448-1.449a1.172,1.172,0,0,0-1.657,1.657l2.277,2.277a1.172,1.172,0,0,0,1.657,0l3.944-3.944A1.172,1.172,0,0,0,106.825,232.817Z" transform="translate(-98.603 -232.474)" fill="#00cbe6" stroke="rgba(0,0,0,0)" stroke-width="1"/>
        </g>
      </g>
      <g id="Group_83" data-name="Group 83" transform="translate(58.507 29.18)">
        <g id="Group_82" data-name="Group 82">
          <path id="Path_52" data-name="Path 52" d="M220.781,249H207.109a1.172,1.172,0,0,0,0,2.344h13.672a1.172,1.172,0,0,0,0-2.344Z" transform="translate(-205.937 -249)" fill="#00cbe6" stroke="rgba(0,0,0,0)" stroke-width="1"/>
        </g>
      </g>
      <g id="Group_85" data-name="Group 85" transform="translate(63.312 8.672)">
        <g id="Group_84" data-name="Group 84">
          <path id="Path_53" data-name="Path 53" d="M256.312,74h-8.2a1.172,1.172,0,0,0,0,2.344h8.2a1.172,1.172,0,0,0,0-2.344Z" transform="translate(-246.937 -74)" fill="#00cbe6" stroke="rgba(0,0,0,0)" stroke-width="1"/>
        </g>
      </g>
      <g id="Group_87" data-name="Group 87" transform="translate(63.312 14.297)">
        <g id="Group_86" data-name="Group 86">
          <path id="Path_54" data-name="Path 54" d="M256.312,122h-8.2a1.172,1.172,0,0,0,0,2.344h8.2a1.172,1.172,0,0,0,0-2.344Z" transform="translate(-246.937 -122)" fill="#00cbe6" stroke="rgba(0,0,0,0)" stroke-width="1"/>
        </g>
      </g>
      <g id="Group_89" data-name="Group 89" transform="translate(63.312 19.922)">
        <g id="Group_88" data-name="Group 88">
          <path id="Path_55" data-name="Path 55" d="M256.312,170h-8.2a1.172,1.172,0,0,0,0,2.344h8.2a1.172,1.172,0,0,0,0-2.344Z" transform="translate(-246.937 -170)" fill="#00cbe6" stroke="rgba(0,0,0,0)" stroke-width="1"/>
        </g>
      </g>
      <g id="Group_91" data-name="Group 91" transform="translate(45.929 36.192)">
        <g id="Group_90" data-name="Group 90">
          <path id="Path_56" data-name="Path 56" d="M106.825,309.184a1.172,1.172,0,0,0-1.657,0l-3.115,3.115L100.6,310.85a1.172,1.172,0,1,0-1.657,1.657l2.277,2.277a1.172,1.172,0,0,0,1.657,0l3.944-3.944A1.172,1.172,0,0,0,106.825,309.184Z" transform="translate(-98.603 -308.841)" fill="#00cbe6" stroke="rgba(0,0,0,0)" stroke-width="1"/>
        </g>
      </g>
      <g id="Group_93" data-name="Group 93" transform="translate(58.507 38.086)">
        <g id="Group_92" data-name="Group 92">
          <path id="Path_57" data-name="Path 57" d="M220.781,325H207.109a1.172,1.172,0,0,0,0,2.344h13.672a1.172,1.172,0,1,0,0-2.344Z" transform="translate(-205.937 -325)" fill="#00cbe6" stroke="rgba(0,0,0,0)" stroke-width="1"/>
        </g>
      </g>
    </g>
  </g>
</svg>
