<svg xmlns="http://www.w3.org/2000/svg" width="60" height="57.595" viewBox="0 0 60 57.595">
  <g id="Group_1333" data-name="Group 1333" transform="translate(-550 -412)">
    <g id="Group_99" data-name="Group 99" transform="translate(550 401.738)">
      <g id="Group_98" data-name="Group 98" transform="translate(0 10.262)">
        <path id="Path_58" data-name="Path 58" d="M59.884,41.831A23.653,23.653,0,0,0,41.492,21.09V18.113a3.984,3.984,0,0,0-.962-7.851H32.092a3.984,3.984,0,0,0-.962,7.851V21.1a23.531,23.531,0,0,0-11.54,6.348A23.8,23.8,0,0,0,17.6,29.7c-.029,0-.059,0-.089,0H9.16a1.172,1.172,0,0,0,0,2.344h6.845a23.49,23.49,0,0,0-2.079,4.5H1.172a1.172,1.172,0,1,0,0,2.344H13.264a23.827,23.827,0,0,0-.582,4.5H7.5a1.172,1.172,0,0,0,0,2.344h5.22a23.792,23.792,0,0,0,.732,4.5H5.859a1.172,1.172,0,0,0,0,2.344H14.2A23.669,23.669,0,0,0,33.989,67.743q1.161.115,2.323.114A23.729,23.729,0,0,0,49.23,64.039a1.172,1.172,0,1,0-1.279-1.964,21.328,21.328,0,1,1,6.282-6.29A1.172,1.172,0,1,0,56.2,57.061,23.748,23.748,0,0,0,59.884,41.831ZM30.452,14.247a1.643,1.643,0,0,1,1.641-1.641H40.53a1.641,1.641,0,1,1,0,3.281H32.092A1.643,1.643,0,0,1,30.452,14.247ZM33.474,20.7V18.231h5.674v2.461A23.879,23.879,0,0,0,33.474,20.7Z" transform="translate(0 -10.262)" fill="#aa6def"/>
        <path id="Path_59" data-name="Path 59" d="M436.949,425.507a1.172,1.172,0,1,0,.828.343A1.178,1.178,0,0,0,436.949,425.507Z" transform="translate(-384.709 -376.846)" fill="#aa6def"/>
        <path id="Path_60" data-name="Path 60" d="M173.053,144.611a18.179,18.179,0,1,0,18.179,18.18A18.2,18.2,0,0,0,173.053,144.611Zm0,34.015a15.836,15.836,0,1,1,15.836-15.836A15.854,15.854,0,0,1,173.053,178.626Z" transform="translate(-136.725 -128.867)" fill="#aa6def"/>
        <path id="Path_61" data-name="Path 61" d="M270.66,219.757l-5.8,5.8a3.632,3.632,0,0,0-3.217,0l-2.6-2.6a1.172,1.172,0,1,0-1.657,1.657l2.6,2.6a3.642,3.642,0,1,0,6.532,0l5.634-5.634h0l.17-.17a1.172,1.172,0,0,0-1.657-1.657Zm-7.413,10.368a1.3,1.3,0,1,1,1.3-1.3A1.3,1.3,0,0,1,263.247,230.126Z" transform="translate(-226.918 -194.904)" fill="#00cbe6"/>
        <path id="Path_62" data-name="Path 62" d="M399.919,289.865h-1.086a1.172,1.172,0,1,0,0,2.344h1.086a1.172,1.172,0,0,0,0-2.344Z" transform="translate(-351.06 -257.099)" fill="#00cbe6"/>
        <path id="Path_63" data-name="Path 63" d="M195.342,289.621h-1.086a1.172,1.172,0,0,0,0,2.344h1.086a1.172,1.172,0,0,0,0-2.344Z" transform="translate(-170.458 -256.884)" fill="#00cbe6"/>
        <path id="Path_64" data-name="Path 64" d="M301.3,186.251a1.172,1.172,0,0,0,1.172-1.172v-1.086a1.172,1.172,0,1,0-2.344,0v1.086A1.172,1.172,0,0,0,301.3,186.251Z" transform="translate(-264.957 -162.6)" fill="#00cbe6"/>
        <path id="Path_65" data-name="Path 65" d="M301.056,387.4a1.172,1.172,0,0,0-1.172,1.172v1.086a1.172,1.172,0,1,0,2.344,0v-1.086A1.172,1.172,0,0,0,301.056,387.4Z" transform="translate(-264.741 -343.203)" fill="#00cbe6"/>
        <path id="Path_66" data-name="Path 66" d="M1.172,351.445a1.172,1.172,0,1,0,.828,2,1.172,1.172,0,0,0-.828-2Z" transform="translate(0 -311.463)" fill="#aa6def"/>
      </g>
    </g>
  </g>
</svg>
