<svg xmlns="http://www.w3.org/2000/svg" width="16" height="16" viewBox="0 0 16 16">
  <path id="news" d="M15.375,7.375H11.25V.625A.625.625,0,0,0,10.625,0h-10A.625.625,0,0,0,0,.625V13a3,3,0,0,0,3,3H13a3,3,0,0,0,3-3V8A.625.625,0,0,0,15.375,7.375ZM3,14.75A1.752,1.752,0,0,1,1.25,13V1.25H10V13a2.984,2.984,0,0,0,.565,1.75ZM14.75,13a1.75,1.75,0,0,1-3.5,0V8.625h3.5ZM8.125,3.708h-5a.625.625,0,0,0-.625.625V9.208a.625.625,0,0,0,.625.625h5a.625.625,0,0,0,.625-.625V4.333A.625.625,0,0,0,8.125,3.708ZM7.5,8.583H3.75V4.958H7.5Zm1.25,3.083a.625.625,0,0,1-.625.625h-5a.625.625,0,0,1,0-1.25h5A.625.625,0,0,1,8.75,11.667Z" fill="#9d68d9"/>
</svg>
