<svg xmlns="http://www.w3.org/2000/svg" width="15.908" height="16" viewBox="0 0 15.908 16">
  <path id="project" d="M573.042,89.675H561.165a.734.734,0,0,1-.474-.831,5.524,5.524,0,0,1,.28-1.5.385.385,0,0,0-.039-.361c-.557-.952-1.106-1.908-1.658-2.863a.634.634,0,0,1,.255-.963c.468-.271.936-.543,1.406-.81a.173.173,0,0,0,.1-.185c-.008-.322-.011-.645,0-.966a.192.192,0,0,0-.113-.207c-.466-.264-.93-.533-1.393-.8a.633.633,0,0,1-.258-.951q.9-1.561,1.8-3.121a.632.632,0,0,1,.963-.254c.464.269.929.533,1.391.8a.186.186,0,0,0,.223-.008q.411-.253.837-.483a.184.184,0,0,0,.119-.188c-.005-.547,0-1.093,0-1.64a.625.625,0,0,1,.672-.672h3.656a.625.625,0,0,1,.673.672c0,.547,0,1.093,0,1.64a.174.174,0,0,0,.106.181c.288.156.573.318.85.491a.193.193,0,0,0,.236,0c.466-.274.935-.544,1.405-.812a.623.623,0,0,1,.928.253q.911,1.573,1.819,3.148a.627.627,0,0,1-.251.93q-.7.41-1.406.811a.191.191,0,0,0-.113.206c.012.317.011.634,0,.951a.192.192,0,0,0,.108.209c.462.26.921.526,1.38.793a.639.639,0,0,1,.261.984q-.834,1.447-1.671,2.891a.313.313,0,0,0-.026.29,5.152,5.152,0,0,1,.286,1.731.6.6,0,0,1-.365.57C573.112,89.637,573.077,89.657,573.042,89.675ZM564.7,83.82a3.217,3.217,0,1,1,4.809,0,5.5,5.5,0,0,1,1.648.764,5.588,5.588,0,0,1,1.321,1.283l1.1-1.9c-.431-.249-.853-.494-1.277-.737a.683.683,0,0,1-.406-.848,4.445,4.445,0,0,0,0-1.415.684.684,0,0,1,.406-.849l1.277-.737-1.248-2.159c-.06.032-.106.054-.15.08l-1.162.672a.647.647,0,0,1-.87-.069,4.9,4.9,0,0,0-1.336-.763.639.639,0,0,1-.458-.668c0-.469,0-.937,0-1.406,0-.045-.006-.089-.009-.135h-2.491v.159c0,.463,0,.927,0,1.39a.626.626,0,0,1-.437.651,5.039,5.039,0,0,0-1.4.808.631.631,0,0,1-.781.058c-.391-.229-.784-.453-1.176-.678l-.181-.1-1.249,2.162,1.365.79a.611.611,0,0,1,.332.665,5.323,5.323,0,0,0,0,1.664.626.626,0,0,1-.346.689c-.4.23-.8.463-1.2.694-.047.027-.094.056-.145.087l1.1,1.9A5.5,5.5,0,0,1,564.7,83.82Zm7.508,4.6c-.007-.059-.009-.106-.017-.152a4.166,4.166,0,0,0-3.971-3.376q-1.093-.017-2.187,0a4.157,4.157,0,0,0-3.923,2.98c-.052.176-.084.358-.128.548Zm-7.07-6.755a1.963,1.963,0,1,0,1.969-1.953A1.977,1.977,0,0,0,565.14,81.666Z" transform="translate(-559.15 -73.675)" fill="#9d68d9"/>
</svg>
