<svg xmlns="http://www.w3.org/2000/svg" width="17" height="16.966" viewBox="0 0 17 16.966">
  <g id="Group_49" data-name="Group 49" transform="translate(0.5 -0.044)">
    <g id="Group_48" data-name="Group 48" transform="translate(0 0.544)">
      <path id="Path_36" data-name="Path 36" d="M16,4.926v-3.7a.681.681,0,0,0-.679-.679H.679A.681.681,0,0,0,0,1.223v3.7A2.316,2.316,0,0,0,1.732,7.163v7.988H.679a.679.679,0,1,0,0,1.359H15.287A.711.711,0,0,0,16,15.831a.681.681,0,0,0-.679-.679H14.234V7.16A2.4,2.4,0,0,0,16,4.926Zm-1.359,0a.986.986,0,0,1-.89.981.674.674,0,0,0-.408,0h-.061a.986.986,0,0,1-.965-.788c.007-.065.012-.131.014-.2V1.869h2.31V4.926ZM8.662,1.869h2.31V4.926c0,.072,0,.143.01.214a.986.986,0,0,1-.961.771H9.648a.986.986,0,0,1-.985-.985ZM5.028,4.926V1.869H7.3V4.926c0,.072,0,.143.01.214a.986.986,0,0,1-.961.771H5.979a.986.986,0,0,1-.965-.789C5.021,5.058,5.026,4.992,5.028,4.926Zm-3.7,0V1.869H3.669V4.926a.986.986,0,0,1-.985.985H2.623a.674.674,0,0,0-.408,0A.986.986,0,0,1,1.325,4.926ZM9.07,15.151H6.9V10.939H9.07Zm1.359,0V10.26a.681.681,0,0,0-.679-.679H6.217a.681.681,0,0,0-.679.679v4.892H3.091V7.2a2.352,2.352,0,0,0,1.236-.659,2.3,2.3,0,0,0,1.652.7h.374a2.3,2.3,0,0,0,1.624-.682,2.3,2.3,0,0,0,1.637.682h.374a2.313,2.313,0,0,0,1.65-.69,2.3,2.3,0,0,0,1.238.654v7.952H10.429Z" transform="translate(0 -0.544)" fill="#9d68d9" stroke="rgba(0,0,0,0)" stroke-width="1"/>
    </g>
  </g>
</svg>
