<svg xmlns="http://www.w3.org/2000/svg" width="16" height="15.674" viewBox="0 0 16 15.674">
  <g id="Group_1396" data-name="Group 1396" transform="translate(-66 -3171)">
    <g id="Group_234" data-name="Group 234" transform="translate(66 3167.238)">
      <g id="Group_233" data-name="Group 233" transform="translate(0 3.762)">
        <g id="Group_232" data-name="Group 232" transform="translate(0 0)">
          <path id="Path_194" data-name="Path 194" d="M13.881,9.675l-.076-.027-.3-.71.032-.073c.9-2.042.838-2.1.689-2.251l-1.2-1.172a.321.321,0,0,0-.21-.083,7.678,7.678,0,0,0-2.046.8L10.7,6.2,9.969,5.9,9.94,5.828c-.834-2.066-.92-2.066-1.127-2.066h-1.7c-.207,0-.3,0-1.075,2.069l-.029.075-.728.3-.07-.029A11.211,11.211,0,0,0,3.13,5.412a.322.322,0,0,0-.21.082l-1.2,1.175c-.153.15-.216.213.732,2.213l.035.074-.3.709-.073.028C0,10.51,0,10.589,0,10.8v1.662c0,.213,0,.3,2.118,1.061l.076.027.3.707-.032.072c-.9,2.043-.843,2.1-.69,2.251l1.2,1.173a.33.33,0,0,0,.211.083,7.706,7.706,0,0,0,2.047-.8L5.3,17l.732.3.028.073c.835,2.065.921,2.065,1.128,2.065h1.7c.213,0,.3,0,1.076-2.071l.029-.075L10.718,17l.069.028a11.148,11.148,0,0,0,2.082.764.322.322,0,0,0,.211-.082l1.2-1.178c.151-.151.215-.213-.735-2.211l-.035-.075.3-.706.071-.028C16,12.687,16,12.607,16,12.394V10.733C16,10.52,16,10.432,13.881,9.675ZM8,14.3a2.7,2.7,0,1,1,2.748-2.7A2.726,2.726,0,0,1,8,14.3Z" transform="translate(0 -3.762)" fill="#b8b4cc"/>
        </g>
      </g>
    </g>
  </g>
</svg>
