<svg xmlns="http://www.w3.org/2000/svg" width="16" height="16" viewBox="0 0 16 16">
  <path id="Path_193" data-name="Path 193" d="M14.751,12.25V11.6a1.443,1.443,0,0,0-1.441-1.441h-6a.624.624,0,0,0-.486,1.016l.127.116.011.011a.622.622,0,0,0,.349.107h3.125a.625.625,0,1,1,0,1.25H7.314a1.87,1.87,0,0,1-1.376-.6L2.33,8.757l-.016-.015a.625.625,0,0,0-.881.887l3.18,2.945.01.01A7.661,7.661,0,0,0,9.979,14.75h5.4a.625.625,0,1,1,0,1.25h-5.4a8.949,8.949,0,0,1-6.22-2.515L.576,10.538l-.013-.013A1.875,1.875,0,0,1,3.181,7.841l2.41,2.2A1.878,1.878,0,0,1,7.314,8.906h6A2.694,2.694,0,0,1,16,11.6v.653a.625.625,0,1,1-1.25,0ZM5.172,2.325l.313-.57a.625.625,0,0,1,.726-.3l.806.239a2.624,2.624,0,0,1,.592-.362L7.72.538A.625.625,0,0,1,8.338,0h.638a.625.625,0,0,1,.615.514l.147.818a2.641,2.641,0,0,1,.535.316l.749-.286a.625.625,0,0,1,.753.252l.35.559A.625.625,0,0,1,11.979,3l-.675.525c0,.018,0,.037,0,.055s0,.031,0,.046c0,.041,0,.083,0,.125s0,.085,0,.128l.654.48a.625.625,0,0,1,.2.77l-.255.54A.625.625,0,0,1,11.163,6l-.787-.233a2.612,2.612,0,0,1-.655.406l-.128.8a.625.625,0,0,1-.617.526h-.6a.625.625,0,0,1-.615-.514L7.61,6.167a2.637,2.637,0,0,1-.552-.329L6.3,6.112A.625.625,0,0,1,5.54,5.83l-.3-.53a.625.625,0,0,1,.152-.793l.651-.525c0-.019,0-.038,0-.057s0-.033,0-.049c0-.042,0-.084,0-.126s0-.08,0-.119c0-.009,0-.018,0-.026s0-.006,0-.01l-.669-.451A.625.625,0,0,1,5.172,2.325ZM8.3,5.09a1.387,1.387,0,0,0,.715.008l.013,0,.051-.015.01,0A1.391,1.391,0,0,0,9.7,4.688l.008-.009a1.389,1.389,0,0,0,.327-.646c0-.014.005-.029.008-.043s0-.017,0-.025.006-.041.008-.062V3.894a1.386,1.386,0,0,0,.007-.144q0-.04,0-.08c0-.008,0-.015,0-.023s0-.039-.005-.058l0-.025c0-.018-.005-.037-.008-.055l0-.025c0-.019-.008-.038-.012-.057a1.39,1.39,0,0,0-.352-.643L9.63,2.742l-.02-.019c-.019-.018-.039-.034-.059-.051l-.027-.021-.04-.03L9.454,2.6l-.062-.04-.034-.019L9.32,2.519,9.284,2.5l-.051-.023-.045-.019-.05-.019L9.1,2.428,9.046,2.41A1.387,1.387,0,0,0,7.32,3.438q-.008.036-.015.073v0c0,.024-.008.049-.01.073v.006c0,.023,0,.046-.006.069,0,0,0,.007,0,.01,0,.026,0,.052,0,.077s0,.053,0,.08l0,.022c0,.02,0,.039.005.059l0,.024c0,.019.005.038.009.057l0,.024c0,.02.008.039.013.059a1.39,1.39,0,0,0,.35.64l.037.037.026.025.056.049.031.024.035.026.035.025.043.028.053.031.036.02L8.064,5l.045.021.049.021.052.02.033.011Z" transform="translate(-0.001)" fill="#9d68d9"/>
</svg>
