<svg xmlns="http://www.w3.org/2000/svg" width="60" height="60" viewBox="0 0 60 60">
  <g id="Group_1377" data-name="Group 1377" transform="translate(-975 -5237)">
    <g id="Group_321" data-name="Group 321" transform="translate(975 5237)">
      <path id="Path_243" data-name="Path 243" d="M167.172,42.344A1.172,1.172,0,1,0,166,41.172,1.172,1.172,0,0,0,167.172,42.344Z" transform="translate(-146.547 -35.313)" fill="#9d68d9"/>
      <path id="Path_244" data-name="Path 244" d="M101.172,188.344A1.172,1.172,0,1,0,100,187.172,1.172,1.172,0,0,0,101.172,188.344Z" transform="translate(-88.281 -164.203)" fill="#00c1db"/>
      <path id="Path_245" data-name="Path 245" d="M402.547,57.719h-1.172V55.375a4.651,4.651,0,0,0-1.172-3.1V49.516a3.516,3.516,0,0,0-7.031,0v2.763a4.684,4.684,0,0,0-1.172,3.1V87.719a15.708,15.708,0,0,0,3.516,9.765v1.953a1.172,1.172,0,0,0,2.344,0V97.484a15.607,15.607,0,0,0,3.516-9.765V60.063h1.172a1.173,1.173,0,0,1,1.172,1.172v9.375a1.172,1.172,0,0,0,2.344,0V61.234A3.519,3.519,0,0,0,402.547,57.719Zm-8.2-2.344a2.344,2.344,0,0,1,4.688,0v2.344h-4.687Zm2.344-7.031a1.173,1.173,0,0,1,1.172,1.172v1.322a4.656,4.656,0,0,0-2.344,0V49.516A1.173,1.173,0,0,1,396.688,48.344Zm0,46.786a12.992,12.992,0,0,1-2.289-6.241h4.578A12.992,12.992,0,0,1,396.688,95.13Zm2.344-8.583h-4.687V60.063h4.688Z" transform="translate(-346.063 -40.609)" fill="#00c1db"/>
      <path id="Path_246" data-name="Path 246" d="M37.734,60a3.519,3.519,0,0,0,3.516-3.516V12.891a3.519,3.519,0,0,0-3.516-3.516H31.674a3.521,3.521,0,0,0-3.314-2.344h-2a5.639,5.639,0,0,0,.123-1.172,5.859,5.859,0,0,0-11.719,0,5.639,5.639,0,0,0,.123,1.172h-2A3.521,3.521,0,0,0,9.576,9.375H3.516A3.519,3.519,0,0,0,0,12.891V56.484A3.519,3.519,0,0,0,3.516,60ZM34.219,47.6v5.374H28.845Zm-7.031,3.716V45.938h5.374Zm7.031-7.717h-8.2a1.172,1.172,0,0,0-1.172,1.172v8.2H7.031V16.406H34.219ZM12.891,9.375h3.7A1.172,1.172,0,0,0,17.6,7.614a3.456,3.456,0,0,1-.493-1.754,3.516,3.516,0,0,1,7.031,0,3.456,3.456,0,0,1-.493,1.754,1.172,1.172,0,0,0,1.013,1.761h3.7a1.173,1.173,0,0,1,1.172,1.172v3.516H11.719V10.547A1.173,1.173,0,0,1,12.891,9.375ZM2.344,56.484V12.891a1.173,1.173,0,0,1,1.172-1.172H9.375v2.344H5.859a1.172,1.172,0,0,0-1.172,1.172V54.141a1.172,1.172,0,0,0,1.172,1.172H35.391a1.172,1.172,0,0,0,1.172-1.172V15.234a1.172,1.172,0,0,0-1.172-1.172H31.875V11.719h5.859a1.173,1.173,0,0,1,1.172,1.172V56.484a1.173,1.173,0,0,1-1.172,1.172H3.516A1.173,1.173,0,0,1,2.344,56.484Z" fill="#9d68d9"/>
      <path id="Path_247" data-name="Path 247" d="M151.953,186H141.172a1.172,1.172,0,0,0,0,2.344h10.781a1.172,1.172,0,0,0,0-2.344Z" transform="translate(-123.594 -164.203)" fill="#00c1db"/>
      <path id="Path_248" data-name="Path 248" d="M116.641,292H101.172a1.172,1.172,0,0,0,0,2.344h15.469a1.172,1.172,0,0,0,0-2.344Z" transform="translate(-88.281 -257.781)" fill="#00c1db"/>
      <path id="Path_249" data-name="Path 249" d="M116.641,332H101.172a1.172,1.172,0,0,0,0,2.344h15.469a1.172,1.172,0,0,0,0-2.344Z" transform="translate(-88.281 -293.094)" fill="#00c1db"/>
      <path id="Path_250" data-name="Path 250" d="M116.641,252H101.172a1.172,1.172,0,0,0,0,2.344h15.469a1.172,1.172,0,0,0,0-2.344Z" transform="translate(-88.281 -222.469)" fill="#00c1db"/>
    </g>
  </g>
</svg>
