<svg xmlns="http://www.w3.org/2000/svg" width="55.673" height="60" viewBox="0 0 55.673 60">
  <g id="Group_1375" data-name="Group 1375" transform="translate(-405 -5237)">
    <g id="Group_244" data-name="Group 244" transform="translate(386.998 5237)">
      <path id="Path_67" data-name="Path 67" d="M73.008,150.045,63.48,140.026a2.651,2.651,0,0,0-3.71.023L56.88,142.8a2.691,2.691,0,0,0-.623,3.107l0,0-3.062,2.877a4.283,4.283,0,0,1-3.074,1.129,6.668,6.668,0,0,0-3.476.874c-1.664-.534-3.244-1.124-5.015-.579a3.091,3.091,0,0,1-3.1-.77c-.943-.943-1.855-1.931-2.838-2.831a2.715,2.715,0,0,0-.654-2.873l-2.816-2.825a2.79,2.79,0,0,0-1.809-.827,2.48,2.48,0,0,0-1.9.7l-9.792,9.761h0a2.48,2.48,0,0,0-.71,1.9,2.789,2.789,0,0,0,.821,1.812l2.816,2.825a2.828,2.828,0,0,0,1.961.832,2.543,2.543,0,0,0,.671-.092,59.05,59.05,0,0,0,4.337,4.356,1.481,1.481,0,0,1,.437,1.055,3.827,3.827,0,0,0,1.127,2.723l.056.055c-1.123,1.122-2.564,2.2-2.564,3.946a3.5,3.5,0,0,0,1.167,2.549,3.31,3.31,0,0,0,2.164.971,3.476,3.476,0,0,0,1.149,2.2,3.314,3.314,0,0,0,2.245.974,3.485,3.485,0,0,0,1.14,2.127,3.312,3.312,0,0,0,2.155.97,3.474,3.474,0,0,0,1.153,2.232,3.336,3.336,0,0,0,4.718,0l1.853-1.853,1.758,1.758a3.468,3.468,0,0,0,5.921-2.341A3.468,3.468,0,0,0,56.23,176.2a3.461,3.461,0,0,0,3.138-3.224,3.47,3.47,0,0,0,2.608-5.5,5.5,5.5,0,0,0,.873-2.751c.068-1.421-.112-3.1.955-4.211l3.252-3.378c.026-.028.923.14.936.14a2.785,2.785,0,0,0,1.915-.778l2.89-2.749A2.629,2.629,0,0,0,73.008,150.045Zm-49.322,5.488c-.241.239-3.536-3.085-3.3-3.315l9.793-9.762c.237-.238,3.532,3.089,3.3,3.316Zm8.2,15.3c-.926.926-2.493-.654-1.573-1.574l4.4-4.4c.926-.926,2.493.654,1.573,1.574ZM35.2,174.01c-.926.926-2.493-.654-1.573-1.573l4.4-4.4c.926-.926,2.493.654,1.573,1.573Zm3.386,3.1c-.926.926-2.493-.654-1.573-1.573l4.4-4.4c.926-.926,2.493.654,1.573,1.573Zm7.71-1.2-4.4,4.4c-.926.926-2.493-.654-1.573-1.573l4.29-4.29C45.581,173.519,47.306,174.9,46.3,175.911Zm4.118,4.307a1.122,1.122,0,0,1-1.573,0l-1.758-1.758a7.655,7.655,0,0,0,1.468-1.673l1.758,1.757A1.148,1.148,0,0,1,50.414,180.218Zm9.541-11.491a1.113,1.113,0,0,1-1.573,1.573l-4.212-4.211c-1.082-1.082-2.77.576-1.685,1.66L56.7,171.96a1.113,1.113,0,0,1-1.573,1.574l-4.211-4.212c-1.143-1.142-2.682.66-1.572,1.77l4.211,4.211a1.114,1.114,0,0,1-1.52,1.622l-4.16-4.16a3.454,3.454,0,0,0-2.252-1.066,3.472,3.472,0,0,0-1.152-2.232,3.31,3.31,0,0,0-2.245-.974,3.311,3.311,0,0,0-.95-1.936,3.461,3.461,0,0,0-2.355-1.162,3.312,3.312,0,0,0-.958-2.011,3.5,3.5,0,0,0-2.55-1.168c-1.56,0-2.5,1.117-3.506,2.124-.561-.515-.425-1.19-.575-1.865a3.931,3.931,0,0,0-1.046-1.968l-4.1-4.1,7.179-7.18.813-.81,2.69,2.69a5.445,5.445,0,0,0,5.464,1.357,3.321,3.321,0,0,1,2.114.093l-4.558,4.462a3.607,3.607,0,0,0,.552,5.519c1.541.987,3.608.555,5.094-.316,1.194-.7,2.044-2.417,3.544-2.475a5.412,5.412,0,0,1,3.554,1.623ZM47.486,153.039a4.325,4.325,0,0,1,2.569-.769,6.613,6.613,0,0,0,4.753-1.768l2.987-2.807,7.5,7.875-3.184,3.308a5.4,5.4,0,0,0-1.5,3.49,10.475,10.475,0,0,1-.341,3.326l-5.967-5.988a7.854,7.854,0,0,0-5.319-2.317c-2.173.085-2.975,1.819-4.644,2.8-.7.408-1.57.895-2.373.482a1.231,1.231,0,0,1-.431-1.966Zm23.688-1c-.31.3-3.014,3.122-3.266,2.856l-9.529-10.019c-.224-.235,3.159-3.473,3.392-3.226L71.3,151.67C71.336,151.708,71.336,151.885,71.174,152.04Z" transform="translate(0 -122.957)" fill="#9d68d9"/>
      <path id="Path_68" data-name="Path 68" d="M181.474,19.666a9.839,9.839,0,0,0,9.455-12.543,1.18,1.18,0,0,0-2.267.649A7.464,7.464,0,1,1,183,2.514,1.18,1.18,0,0,0,183.477.2a9.834,9.834,0,1,0-2,19.462Z" transform="translate(-135.635)" fill="#00c1db"/>
      <path id="Path_69" data-name="Path 69" d="M227.7,62.593l-2.556,2.556-1.323-1.323a1.18,1.18,0,0,0-1.668,1.667L224.3,67.65a1.19,1.19,0,0,0,1.668,0l3.39-3.39A1.18,1.18,0,0,0,227.7,62.593Z" transform="translate(-179.916 -54.951)" fill="#00c1db"/>
      <path id="Path_71" data-name="Path 71" d="M297.409,20.222a1.179,1.179,0,1,0,.638-1.54A1.191,1.191,0,0,0,297.409,20.222Z" transform="translate(-246.588 -16.416)" fill="#00c1db"/>
    </g>
  </g>
</svg>
