<svg xmlns="http://www.w3.org/2000/svg" width="60" height="60" viewBox="0 0 60 60">
  <g id="Group_1378" data-name="Group 1378" transform="translate(-1260 -5237)">
    <g id="Group_322" data-name="Group 322" transform="translate(1260 5237)">
      <path id="Path_251" data-name="Path 251" d="M56.484,105.734H45.234v-4.219A3.519,3.519,0,0,0,41.719,98H34.675a1.172,1.172,0,0,0,0,2.344h7.044a1.173,1.173,0,0,1,1.172,1.172v35.625a1.173,1.173,0,0,1-1.172,1.172H18.281a1.173,1.173,0,0,1-1.172-1.172V101.516a1.173,1.173,0,0,1,1.172-1.172H25.3A1.172,1.172,0,1,0,25.3,98H18.281a3.519,3.519,0,0,0-3.516,3.516v4.219H3.516A3.519,3.519,0,0,0,0,109.25V143a3.519,3.519,0,0,0,3.516,3.516H25.078A3.519,3.519,0,0,0,28.594,143v-2.344h2.813V143a3.519,3.519,0,0,0,3.516,3.516H56.484A3.519,3.519,0,0,0,60,143V109.25A3.519,3.519,0,0,0,56.484,105.734Zm-11.25,10.312c.156-.013.312-.022.469-.022a5.476,5.476,0,1,1,0,10.953c-.157,0-.313-.009-.469-.023ZM14.766,126.954c-.156.013-.312.023-.469.023a5.476,5.476,0,1,1,0-10.953c.157,0,.313.009.469.022ZM26.25,143a1.173,1.173,0,0,1-1.172,1.172H3.516A1.173,1.173,0,0,1,2.344,143V109.25a1.173,1.173,0,0,1,1.172-1.172h11.25v5.616c-.156-.009-.312-.014-.469-.014a7.82,7.82,0,1,0,0,15.64q.235,0,.469-.014v3.381H7.5a1.172,1.172,0,0,0,0,2.344h7.266v2.109a3.5,3.5,0,0,0,.2,1.172H9.944a1.172,1.172,0,0,0,0,2.344H26.25Zm31.406,0a1.173,1.173,0,0,1-1.172,1.172H34.922A1.173,1.173,0,0,1,33.75,143v-2.344H50.056a1.172,1.172,0,1,0,0-2.344H45.033a3.5,3.5,0,0,0,.2-1.172v-2.109H52.5a1.172,1.172,0,0,0,0-2.344H45.234v-3.381q.234.014.469.015a7.82,7.82,0,0,0,0-15.641c-.157,0-.313.005-.469.014v-5.616h11.25a1.173,1.173,0,0,1,1.172,1.172Z" transform="translate(0 -86.516)" fill="#9d68d9"/>
      <path id="Path_252" data-name="Path 252" d="M203.938,341.172A1.172,1.172,0,0,0,202.766,340H189.172a1.172,1.172,0,0,0,0,2.344h13.594A1.172,1.172,0,0,0,203.938,341.172Z" transform="translate(-165.969 -300.156)" fill="#00c1db"/>
      <path id="Path_253" data-name="Path 253" d="M210.027,388a1.172,1.172,0,1,0,0,2.344h8.706a1.172,1.172,0,0,0,0-2.344Z" transform="translate(-184.38 -342.531)" fill="#00c1db"/>
      <path id="Path_254" data-name="Path 254" d="M183.609,152a9.6,9.6,0,0,0-6.442,16.734,1.186,1.186,0,0,0,.171.149,9.581,9.581,0,0,0,12.54,0,1.143,1.143,0,0,0,.173-.15A9.6,9.6,0,0,0,183.609,152ZM179.4,167.528a4.626,4.626,0,0,1,8.413,0,7.241,7.241,0,0,1-8.413,0Zm2.732-6.519v-.662a1.474,1.474,0,0,1,2.949,0v.662a1.474,1.474,0,0,1-2.949,0Zm7.407,4.787a7,7,0,0,0-2.823-2.577,3.793,3.793,0,0,0,.708-2.211v-.661a3.818,3.818,0,0,0-7.636,0v.661a3.8,3.8,0,0,0,.708,2.211,7,7,0,0,0-2.823,2.577,7.266,7.266,0,1,1,11.865,0Z" transform="translate(-153.609 -134.188)" fill="#00c1db"/>
      <path id="Path_255" data-name="Path 255" d="M247.067,5.8a1.172,1.172,0,0,0,1.172-1.172V1.172a1.172,1.172,0,1,0-2.344,0V4.631A1.172,1.172,0,0,0,247.067,5.8Z" transform="translate(-217.079)" fill="#00c1db"/>
      <path id="Path_256" data-name="Path 256" d="M164.248,40.709a1.172,1.172,0,1,0,1.657-1.657l-2.03-2.03a1.172,1.172,0,0,0-1.658,1.658Z" transform="translate(-142.905 -32.38)" fill="#00c1db"/>
      <path id="Path_257" data-name="Path 257" d="M313.972,41.052a1.168,1.168,0,0,0,.829-.343l2.03-2.03a1.172,1.172,0,0,0-1.658-1.658l-2.03,2.03a1.172,1.172,0,0,0,.829,2Z" transform="translate(-276.144 -32.38)" fill="#00c1db"/>
      <path id="Path_258" data-name="Path 258" d="M247.172,98a1.172,1.172,0,1,0,.829.343A1.181,1.181,0,0,0,247.172,98Z" transform="translate(-217.172 -86.516)" fill="#00c1db"/>
    </g>
  </g>
</svg>
