<svg xmlns="http://www.w3.org/2000/svg" width="16" height="16" viewBox="0 0 16 16">
  <g id="Group_1399" data-name="Group 1399" transform="translate(-66 -3171)">
    <g id="Group_236" data-name="Group 236" transform="translate(65.999 3171)">
      <g id="Group_235" data-name="Group 235" transform="translate(0.001)">
        <path id="Path_195" data-name="Path 195" d="M8,0a8,8,0,1,0,8,8A8,8,0,0,0,8,0Zm.552,8.978a.539.539,0,0,1-.007.063c0,.016,0,.032-.007.047s-.01.032-.015.048a.565.565,0,0,1-.02.057s0,.007,0,.01a.548.548,0,0,1-.041.073l0,0a.551.551,0,0,1-.058.071l-.018.017a.53.53,0,0,1-.058.048L8.3,9.431a.554.554,0,0,1-.083.045L8.2,9.483a.556.556,0,0,1-.074.023L8.1,9.511a.551.551,0,0,1-.1.01l-.02,0a.557.557,0,0,1-.094-.01L7.857,9.5a.562.562,0,0,1-.083-.028l-.009,0L4.7,8.022a.553.553,0,1,1,.472-1L7.448,8.1V3.32a.553.553,0,0,1,1.107,0V8.968h0S8.553,8.975,8.553,8.978Z" transform="translate(-0.001)" fill="#b8b4cc"/>
      </g>
    </g>
  </g>
</svg>
