<svg xmlns="http://www.w3.org/2000/svg" width="60" height="56.25" viewBox="0 0 60 56.25">
  <g id="Group_1377" data-name="Group 1377" transform="translate(-543 -389)">
    <g id="Group_176" data-name="Group 176" transform="translate(543 373)">
      <path id="Path_146" data-name="Path 146" d="M241.172,416a1.172,1.172,0,1,0,1.172,1.172A1.172,1.172,0,0,0,241.172,416Z" transform="translate(-211.875 -353.125)" fill="#00c1db"/>
      <path id="Path_147" data-name="Path 147" d="M56.484,16H12.891a3.52,3.52,0,0,0-3.516,3.516V37.094H3.516A3.52,3.52,0,0,0,0,40.609V68.734A3.52,3.52,0,0,0,3.516,72.25H45.7a3.52,3.52,0,0,0,3.516-3.516V51.156h7.266A3.52,3.52,0,0,0,60,47.641V19.516A3.52,3.52,0,0,0,56.484,16ZM11.719,25.375H57.656v4.688H11.719Zm1.172-7.031H56.484a1.173,1.173,0,0,1,1.172,1.172v3.516H11.719V19.516A1.173,1.173,0,0,1,12.891,18.344ZM46.875,68.734A1.173,1.173,0,0,1,45.7,69.906H3.516a1.173,1.173,0,0,1-1.172-1.172V40.609a1.173,1.173,0,0,1,1.172-1.172H45.7a1.173,1.173,0,0,1,1.172,1.172Zm9.609-19.922H49.219v-8.2A3.52,3.52,0,0,0,45.7,37.094H11.719V32.406H57.656V47.641A1.173,1.173,0,0,1,56.484,48.813Z" fill="#9d68d9"/>
      <path id="Path_148" data-name="Path 148" d="M61.172,265.375H72.891a1.172,1.172,0,0,0,1.172-1.172v-7.031A1.172,1.172,0,0,0,72.891,256H61.172A1.172,1.172,0,0,0,60,257.172V264.2A1.172,1.172,0,0,0,61.172,265.375Zm1.172-7.031h9.375v4.688H62.344Z" transform="translate(-52.969 -211.875)" fill="#00c1db"/>
      <path id="Path_149" data-name="Path 149" d="M61.172,378.344h4.688a1.172,1.172,0,0,0,0-2.344H61.172a1.172,1.172,0,0,0,0,2.344Z" transform="translate(-52.969 -317.813)" fill="#00c1db"/>
      <path id="Path_150" data-name="Path 150" d="M140,377.172a1.172,1.172,0,0,0,1.172,1.172h4.688a1.172,1.172,0,0,0,0-2.344h-4.687A1.172,1.172,0,0,0,140,377.172Z" transform="translate(-123.594 -317.813)" fill="#00c1db"/>
      <path id="Path_151" data-name="Path 151" d="M225.859,376h-4.687a1.172,1.172,0,0,0,0,2.344h4.688a1.172,1.172,0,0,0,0-2.344Z" transform="translate(-194.219 -317.813)" fill="#00c1db"/>
      <path id="Path_152" data-name="Path 152" d="M305.859,376h-4.687a1.172,1.172,0,0,0,0,2.344h4.688a1.172,1.172,0,0,0,0-2.344Z" transform="translate(-264.844 -317.813)" fill="#00c1db"/>
      <path id="Path_153" data-name="Path 153" d="M77.578,416H61.172a1.172,1.172,0,0,0,0,2.344H77.578a1.172,1.172,0,0,0,0-2.344Z" transform="translate(-52.969 -353.125)" fill="#00c1db"/>
      <path id="Path_154" data-name="Path 154" d="M249.375,256a4.68,4.68,0,0,0-2.345.63,4.687,4.687,0,1,0,0,8.116A4.687,4.687,0,1,0,249.375,256Zm-7.031,4.688a2.342,2.342,0,0,1,3.9-1.746l0,0a2.343,2.343,0,1,1-3.907,1.744Zm7.031,2.344a2.34,2.34,0,0,1-.587-.076,4.67,4.67,0,0,0,0-4.535,2.343,2.343,0,1,1,.587,4.611Z" transform="translate(-211.875 -211.875)" fill="#00c1db"/>
    </g>
  </g>
</svg>
