<svg xmlns="http://www.w3.org/2000/svg" width="60" height="60" viewBox="0 0 60 60">
  <g id="Group_1378" data-name="Group 1378" transform="translate(-551 -393)">
    <g id="Group_185" data-name="Group 185" transform="translate(551 393)">
      <g id="Group_178" data-name="Group 178">
        <g id="Group_177" data-name="Group 177">
          <path id="Path_155" data-name="Path 155" d="M57.583,18.476A31.18,31.18,0,0,0,41.524,2.417a28.681,28.681,0,0,0-23.048,0A31.18,31.18,0,0,0,2.417,18.476a28.681,28.681,0,0,0,0,23.048A31.18,31.18,0,0,0,18.476,57.583a28.681,28.681,0,0,0,23.048,0A31.18,31.18,0,0,0,57.583,41.524a28.681,28.681,0,0,0,0-23.048ZM30,57.656A28.027,28.027,0,0,1,2.344,30,28.027,28.027,0,0,1,30,2.344,28.027,28.027,0,0,1,57.656,30,28.027,28.027,0,0,1,30,57.656Z" fill="#9d68d9"/>
        </g>
      </g>
      <g id="Group_180" data-name="Group 180" transform="translate(5.039 5.039)">
        <g id="Group_179" data-name="Group 179">
          <path id="Path_156" data-name="Path 156" d="M90.927,58.329A25.638,25.638,0,0,0,77.593,45a24.233,24.233,0,0,0-9.632-2,24.769,24.769,0,0,0-13.587,4.451,1.172,1.172,0,0,0,1.3,1.952,22.446,22.446,0,0,1,12.29-4.059A22.617,22.617,0,1,1,45.344,67.961,22.454,22.454,0,0,1,49.4,55.671a1.172,1.172,0,1,0-1.952-1.3A24.778,24.778,0,0,0,43,67.961a24.234,24.234,0,0,0,2,9.632A25.638,25.638,0,0,0,58.329,90.927a24.25,24.25,0,0,0,19.265,0A25.638,25.638,0,0,0,90.927,77.593a24.249,24.249,0,0,0,0-19.265Z" transform="translate(-43 -43)" fill="#9d68d9"/>
        </g>
      </g>
      <g id="Group_182" data-name="Group 182" transform="translate(12.305 12.305)">
        <g id="Group_181" data-name="Group 181">
          <path id="Path_157" data-name="Path 157" d="M106.172,105a1.172,1.172,0,1,0,1.172,1.172A1.172,1.172,0,0,0,106.172,105Z" transform="translate(-105 -105)" fill="#00c1db"/>
        </g>
      </g>
      <g id="Group_184" data-name="Group 184" transform="translate(14.766 19.453)">
        <g id="Group_183" data-name="Group 183">
          <path id="Path_158" data-name="Path 158" d="M155.1,167.373a4.686,4.686,0,0,0-6.628,0l-10.748,10.748L134,174.4a4.687,4.687,0,1,0-6.628,6.628l7.031,7.031a4.686,4.686,0,0,0,6.628,0L155.1,174a4.686,4.686,0,0,0,0-6.629Zm-1.657,4.971-14.062,14.063a2.342,2.342,0,0,1-3.314,0l-7.032-7.032a2.343,2.343,0,1,1,3.314-3.313l5.374,5.374,12.406-12.406a2.343,2.343,0,1,1,3.314,3.314Z" transform="translate(-126 -166)" fill="#00c1db"/>
        </g>
      </g>
    </g>
  </g>
</svg>
