<svg xmlns="http://www.w3.org/2000/svg" width="60" height="53.906" viewBox="0 0 60 53.906">
  <g id="Group_1376" data-name="Group 1376" transform="translate(-550 -449)">
    <g id="Group_158" data-name="Group 158" transform="translate(550 423)">
      <path id="Path_132" data-name="Path 132" d="M290.344,167.172A1.172,1.172,0,1,1,289.172,166,1.172,1.172,0,0,1,290.344,167.172Z" transform="translate(-254.25 -123.594)" fill="#00c1db"/>
      <path id="Path_133" data-name="Path 133" d="M56.484,37.719H15.869L15.026,31.4a3.526,3.526,0,0,0-3.485-3.052H6.83a3.516,3.516,0,1,0,0,2.344h4.712A1.175,1.175,0,0,1,12.7,31.705l4.146,31.087a3.488,3.488,0,0,0,.172.711,4.686,4.686,0,0,0,.088,9.371h.631a4.688,4.688,0,1,0,8.113,0H42a4.688,4.688,0,1,0,8.113,0h1.8a1.172,1.172,0,0,0,0-2.344h-34.8a2.344,2.344,0,0,1,0-4.687h32.3a3.526,3.526,0,0,0,3.448-2.826L56.508,44.75a3.515,3.515,0,0,0-.023-7.031ZM3.516,30.688a1.172,1.172,0,1,1,1.172-1.172A1.173,1.173,0,0,1,3.516,30.688ZM24.141,75.219A2.344,2.344,0,1,1,21.8,72.874,2.347,2.347,0,0,1,24.141,75.219Zm24.258,0a2.344,2.344,0,1,1-2.344-2.344A2.347,2.347,0,0,1,48.4,75.219Zm8.086-32.812H39.609a1.172,1.172,0,0,0,0,2.344H54.117L50.556,62.558a1.176,1.176,0,0,1-1.15.942H20.333a1.175,1.175,0,0,1-1.161-1.018L16.807,44.75H30.234a1.172,1.172,0,0,0,0-2.344H16.495l-.313-2.344h40.3a1.172,1.172,0,0,1,0,2.344Z" fill="#9d68d9"/>
      <path id="Path_134" data-name="Path 134" d="M256.172,206A1.172,1.172,0,0,0,255,207.172v11.719a1.172,1.172,0,0,0,2.344,0V207.172A1.172,1.172,0,0,0,256.172,206Z" transform="translate(-225.117 -158.906)" fill="#00c1db"/>
      <path id="Path_135" data-name="Path 135" d="M320,207.172v11.719a1.172,1.172,0,0,0,2.344,0V207.172a1.172,1.172,0,0,0-2.344,0Z" transform="translate(-282.5 -158.906)" fill="#00c1db"/>
      <path id="Path_136" data-name="Path 136" d="M385.172,220.063a1.172,1.172,0,0,0,1.172-1.172V207.172a1.172,1.172,0,0,0-2.344,0v11.719A1.172,1.172,0,0,0,385.172,220.063Z" transform="translate(-339 -158.906)" fill="#00c1db"/>
      <path id="Path_137" data-name="Path 137" d="M192.172,206A1.172,1.172,0,0,0,191,207.172v11.719a1.172,1.172,0,0,0,2.344,0V207.172A1.172,1.172,0,0,0,192.172,206Z" transform="translate(-168.617 -158.906)" fill="#00c1db"/>
    </g>
  </g>
</svg>
