<svg width="16" height="16" viewBox="0 0 490 490" fill="none" xmlns="http://www.w3.org/2000/svg">
<path d="M359.579 197.298C382.517 179.178 397.255 151.191 397.255 119.839C397.255 65.339 352.728 21 297.996 21C243.264 21 198.736 65.339 198.736 119.839C198.736 123.411 198.932 126.939 199.305 130.414C188.023 124.253 175.084 120.742 161.334 120.742C117.641 120.742 82.095 156.145 82.095 199.661C82.095 222.349 91.771 242.817 107.212 257.227C72.975 272.259 49 306.483 49 346.207V437.979C49 454.856 62.73 468.586 79.607 468.586H190.798H200.798H405.192C424.752 468.586 440.664 452.674 440.664 433.114V312.743C440.664 259.684 406.815 214.387 359.579 197.298V197.298ZM297.996 51C336.186 51 367.255 81.881 367.255 119.839C367.255 157.797 336.186 188.678 297.996 188.678C259.806 188.678 228.736 157.797 228.736 119.839C228.736 81.881 259.806 51 297.996 51V51ZM161.334 150.742C188.485 150.742 210.574 172.687 210.574 199.661C210.574 203.573 210.102 207.455 209.188 211.212C195.393 220.598 183.601 232.717 174.599 246.787C170.306 247.977 165.861 248.581 161.334 248.581C134.184 248.581 112.095 226.636 112.095 199.661C112.095 172.688 134.184 150.742 161.334 150.742V150.742ZM79 437.979V346.207C79 309.193 109.113 279.08 146.127 279.08H160.022C156.965 289.781 155.327 301.074 155.327 312.743V433.114C155.327 434.975 155.473 436.802 155.75 438.586H79.607C79.307 438.586 79 438.279 79 437.979V437.979ZM410.664 433.114C410.664 436.08 408.158 438.586 405.192 438.586H200.799H190.799C187.833 438.586 185.327 436.08 185.327 433.114V312.743C185.327 261.616 226.922 220.021 278.049 220.021H317.942C369.069 220.021 410.664 261.616 410.664 312.743V433.114Z" fill="#9D68D9"/>
</svg>
